<svg xmlns="http://www.w3.org/2000/svg" viewBox="121.9 148.3 269.8 268.5"><path d="m335 306-13.8-46.6 13.4-8.7 2.3 8-6 3.8 1.4 4.6 9-5.8 2.3 8-8.9 5.8 5.4 18.1 8.8-5.8 2.4 7.9Zm-14.9 9.8L308.7 277l-4.4 2.9-2.4-8 16.4-10.7 2.2 8-4.4 3 11.6 38.5Zm-15.2 9.9L291 279l7.4-4.9 13.9 46.7Zm-52.5-20.9 10.5-6.8 16 24.3-1.1-34 10.5-7 3 82.6Zm-5.8-11a10.6 10.6 0 0 1-1.9-3.5l-1.3-4.3 7.5-4.8 1.3 4.6s.5 1.6 1.6 1.6c.3 0 .7-.2 1.1-.4 1.7-.9 1.9-3.2 1.8-4l-.7-2.5-2.4-8c0-.3-.4-1.1-1-1.3-.6-.3-.9-.3-1.4 0l-.4.2c-.9.5-2.8 1.8-5.3 1.8a9 9 0 0 1-4.6-1.6c-.4-.2-.7-.6-1.6-1.6a11 11 0 0 1-1.4-2.8l-1.2-4.3s-.6-1.9-.4-3.8c.3-5.3 2.3-9.1 6.5-12.3 1.7-1.3 3.5-2 5.5-2a8 8 0 0 1 4.5 1.3c0 .1 2.3 1.7 3 3.6l1.4 5 .2.6-7.5 4.8-1.1-4c-.2-.8-.8-2-1.5-2-.6-.2-1.1 0-1.1 0-.5.3-1.7 1.2-1.9 2.3-.3 1.3 0 2.6 0 2.6l1 3.4.5.9s.5.6 1.3.7c.3 0 .6-.1 1.1-.5l2.2-1a8 8 0 0 1 5.4-.3c.1 0 3.5 1.3 4.7 4 1.1 2.6 2.8 9.2 3 9.5 0 .1 1.3 4 1.1 6.6A16 16 0 0 1 259 294c-2 1.6-4.3 2.6-6.5 2.6-2 0-3.2-.7-3.3-.7 0 0-1.5-.9-2.5-2m-9.2 13.2-2-6.2-4.3 2.8 1.8 6.3-7.5 5-10.8-37c0-.1-1.8-4.8 1.4-11.4 1.7-3.5 5.9-7.1 10.2-7.1a7 7 0 0 1 4.6 1.5c2.2 1.6 3 4.6 3.1 4.7l10.9 36.6Zm-23.7-3.1a28.6 28.6 0 0 1-11.4 13.6l-3 2 3 10.4-11.5 7.6-22.4-75.7 15.1-10c.1 0 4-2.6 7.5-3.1 4-.6 7 .8 7 .8.2.1 5.4 2.4 7.2 8.5l9 30.4c0 .2 2.7 6.5-.5 15.5m43.9-58.9c.3-5.3 2.3-9.2 6.5-12.3a9 9 0 0 1 5.4-2c2.7 0 4.5 1.3 4.5 1.3a9 9 0 0 1 3 3.6l1.5 5 .2.6-7.5 4.8-1.2-4c-.2-.8-.8-2-1.4-2-.6-.2-1 0-1.1 0-.5.3-1.7 1.3-2 2.4-.2 1.2 0 2.5 0 2.5l1.1 3.4.5.9s.4.6 1.3.7c.4 0 .6-.1 1.1-.4l2.2-1.2a10.6 10.6 0 0 1 5.3-.3c.2 0 3.6 1.4 4.8 4 1.1 2.6 2.8 9.3 2.9 9.6 0 .1 1.3 4 1.2 6.7-.1 2.7-1 7.7-5.7 11.6-2 1.6-4.3 2.5-6.5 2.5a6 6 0 0 1-3.3-.8s-1.6-.7-2.5-1.9a10 10 0 0 1-2-3.5l-1.2-4.3 7.5-4.8 1.3 4.6s.5 1.6 1.6 1.6l1.1-.3c1.6-1 2-3.2 1.8-4l-.8-2.6-2.3-8c0-.4-.4-1.1-1-1.3-.6-.3-.8-.3-1.4 0-.1 0-.3 0-.4.2-.9.6-2.7 1.8-5.3 1.8h-.2a9 9 0 0 1-4.4-1.5l-1.6-1.6c-.7-1-1.4-2.7-1.4-3l-1.3-4.2s-.5-1.9-.3-3.8m33.7-29 2.3 8-5.9 4 1.4 4.5 8.9-5.8 2.3 8-8.9 5.8 5.4 18 8.9-5.7 2.4 7.8-16.4 10.8-13.8-46.6Zm85 54.3a14 14 0 0 1 12.4-15.4l-.1-.3a13.7 13.7 0 1 1-8.3-26.1v-.3A14 14 0 0 1 361 223a13.9 13.9 0 0 1 5.4-19l-.2-.3a14 14 0 0 1-19.9-1.1 14 14 0 0 1 1.2-19.8l-.1-.2a14 14 0 0 1-22.7-16.6l-.2-.1a14.2 14.2 0 0 1-25.9-11.6l-.2-.1a14 14 0 0 1-27.4-5.9h-.3a14 14 0 0 1-28 0h-.4A13.7 13.7 0 0 1 232 165a14 14 0 0 1-16.6-10.8l-.2.1c3.2 7.1.3 15.2-6.9 18.3a14 14 0 0 1-18.5-7.1l-.3.2a13.8 13.8 0 0 1-3 19.4 14 14 0 0 1-19.5-3.2l-.2.2a14 14 0 0 1 1 19.8 14 14 0 0 1-19.8 1l-.2.2a14 14 0 1 1-14 24.3l-.2.3a14.2 14.2 0 0 1 9 17.8 14 14 0 0 1-17.7 9l-.1.3a14 14 0 1 1-2.9 28v.2c7.7-.9 14.6 4.5 15.4 12.3.9 7.7-4.7 14.3-12.4 15.1l.2.3c7.4-2.4 15 1.2 17.3 8.6a14 14 0 0 1-9 17.7v.2a13.7 13.7 0 0 1 19 4.9 14 14 0 0 1-5.2 19.2l.2.2a13.8 13.8 0 0 1 19.7 1 14.1 14.1 0 0 1-1.1 19.8l.2.2a14 14 0 1 1 22.6 16.6h.2a14 14 0 1 1 25.6 11.6l.2.2a14.3 14.3 0 0 1 17-10.8 14.1 14.1 0 0 1 10.7 16.7h.3a14 14 0 0 1 28 0h.3a14 14 0 0 1 10.5-16.7c7.6-1.5 15 3.3 16.7 11l.2-.2a13.7 13.7 0 0 1 6.8-18.4 14 14 0 0 1 18.5 7.2l.3-.2c-4.5-6.3-3.3-15 3-19.4a14 14 0 0 1 19.6 3.1l.2-.2a14 14 0 1 1 18.8-20.7l.1-.2a14.2 14.2 0 0 1 14.2-24.5l.2-.3a14 14 0 0 1 8.6-26.7v-.3a14 14 0 0 1-12.4-15.4c.8-7.7 7.6-12.5 15.3-11.7v-.3a14 14 0 0 1-15.4-12.5"/><path d="M224.8 268.5c-1 0-1.8.6-2.5 1.9-.6 1.2-.2 3.4 0 4.1l6.4 21.1 4.4-2.8-6.6-22.3c0-.1-.5-2-1.7-2m-31.3-3.3s-.6-1.9-2-2.4c-.4-.2-.8-.2-1.2-.2-1 0-2 .5-2 .5l-4.7 3.1 12.2 41.2 3.5-2.1s2.4-1.7 3.3-4.1c1-2.4.1-5 .1-5Z"/></svg>
